<?xml version="1.0" standalone="no"?>
<!DOCTYPE svg PUBLIC "-//W3C//DTD SVG 20010904//EN"
 "http://www.w3.org/TR/2001/REC-SVG-20010904/DTD/svg10.dtd">
<svg version="1.0" xmlns="http://www.w3.org/2000/svg"
 width="500.000000pt" height="500.000000pt" viewBox="0 0 500.000000 500.000000"
 preserveAspectRatio="xMidYMid meet">
<metadata>
Created by potrace 1.14, written by Peter Selinger 2001-2017
</metadata>
<g transform="translate(0.000000,500.000000) scale(0.100000,-0.100000)"
fill="#000000" stroke="none">
<path d="M0 2500 l0 -2500 2500 0 2500 0 0 2500 0 2500 -2500 0 -2500 0 0
-2500z m3960 1515 c326 -73 482 -298 507 -731 l6 -114 -295 0 -296 0 -6 23
c-3 12 -6 66 -6 119 0 53 -4 108 -10 122 -12 33 -66 66 -108 66 -126 0 -172
-118 -102 -268 28 -61 58 -94 324 -357 297 -293 357 -364 421 -493 98 -200
120 -512 55 -804 -81 -368 -309 -534 -705 -512 -230 12 -382 69 -495 183 -142
144 -190 321 -190 709 l0 222 284 0 284 0 4 -232 c3 -191 6 -240 20 -270 43
-96 188 -105 234 -16 24 46 29 177 11 280 -29 166 -82 240 -391 539 -262 254
-347 369 -413 554 -27 77 -28 87 -27 265 0 157 4 197 22 265 72 267 245 422
517 466 73 12 270 3 355 -16z m-2490 -12 c0 -19 239 -1746 242 -1749 2 -2 57
385 122 859 65 474 120 870 122 880 5 16 35 17 455 17 l449 0 0 -1460 0 -1460
-270 0 -270 0 -2 1032 -3 1033 -165 -1032 -165 -1033 -262 0 c-145 0 -263 2
-263 4 0 17 -352 2071 -355 2075 -3 2 -5 -464 -5 -1037 l0 -1042 -260 0 -260
0 0 1460 0 1460 445 0 c245 0 445 -3 445 -7z"/>
</g>
</svg>
